<?xml version="1.0" encoding="UTF-8" standalone="no"?>
<svg
   xmlns:dc="http://purl.org/dc/elements/1.1/"
   xmlns:cc="http://creativecommons.org/ns#"
   xmlns:rdf="http://www.w3.org/1999/02/22-rdf-syntax-ns#"
   xmlns:svg="http://www.w3.org/2000/svg"
   xmlns="http://www.w3.org/2000/svg"
   xmlns:sodipodi="http://sodipodi.sourceforge.net/DTD/sodipodi-0.dtd"
   xmlns:inkscape="http://www.inkscape.org/namespaces/inkscape"
   version="1.1"
   id="svg10"
   width="156"
   height="147"
   viewBox="0 0 156 147"
   sodipodi:docname="cajunreeferlsvg.svg"
   inkscape:version="1.0.2-2 (e86c870879, 2021-01-15)">
  <metadata
     id="metadata16">
    <rdf:RDF>
      <cc:Work
         rdf:about="">
        <dc:format>image/svg+xml</dc:format>
        <dc:type
           rdf:resource="http://purl.org/dc/dcmitype/StillImage" />
        <dc:title></dc:title>
      </cc:Work>
    </rdf:RDF>
  </metadata>
  <defs
     id="defs14" />
  <sodipodi:namedview
     pagecolor="#ffffff"
     bordercolor="#666666"
     borderopacity="1"
     objecttolerance="10"
     gridtolerance="10"
     guidetolerance="10"
     inkscape:pageopacity="0"
     inkscape:pageshadow="2"
     inkscape:window-width="1758"
     inkscape:window-height="976"
     id="namedview12"
     showgrid="false"
     inkscape:zoom="6.3924423"
     inkscape:cx="64.552748"
     inkscape:cy="75.760309"
     inkscape:window-x="0"
     inkscape:window-y="0"
     inkscape:window-maximized="0"
     inkscape:current-layer="g18" />
  <g
     inkscape:groupmode="layer"
     inkscape:label="Image"
     id="g18">
    <path
       style="fill:#000000"
       d="m 111.27048,127.32537 c -2.64085,-0.54381 -5.87333,-4.76996 -6.79694,-8.88636 C 103.09371,112.28927 102.89971,112 100.15512,112 c -1.49056,0 -3.650298,-0.65853 -4.79942,-1.46341 -1.664762,-1.16605 -2.696014,-1.23441 -5.075042,-0.33642 -3.590909,1.35541 -6.283142,0.50633 -6.992229,-2.20522 C 82.918134,106.57894 81.923282,106 79.860316,106 c -2.872159,0 -2.887065,0.0295 -1.264493,2.5059 2.450874,3.74051 0.345842,8.0626 -5.251191,10.78185 l -4.338117,2.10762 -2.753257,-1.99372 c -1.514292,-1.09655 -3.956121,-4.448 -5.426287,-7.44769 l -2.67303,-5.45396 -7.32697,-0.58521 c -7.017511,-0.5605 -7.411443,-0.47607 -9.326971,1.99894 -3.859629,4.98694 -8.763116,9.18228 -10.373691,8.87556 -2.427153,-0.46224 -2.505632,-4.12543 -0.185799,-8.67268 C 32.073229,105.8963 33,103.64207 33,103.10723 c 0,-1.6019 -3.986195,-2.36358 -5.555129,-1.06148 -2.226346,1.84771 -8.753346,1.63737 -11.83432,-0.38136 C 11.743123,99.130356 7.2025899,91.533772 6.4145871,86.278993 5.6056293,80.884476 8.0654345,76.789949 12.594468,75.992124 c 2.542334,-0.447851 2.961203,-1.038782 3.544139,-5 C 17.725813,60.206621 25.504277,45.998382 33.33429,39.582274 37.589383,36.095546 46.861036,31 48.950256,31 c 0.637891,0 2.207475,-2.3625 3.487965,-5.25 3.086101,-6.95915 5.476286,-8.939283 11.487696,-9.516903 6.793691,-0.652788 11.103907,2.084592 14.6298,9.291257 1.982921,4.052945 3.723727,6.019752 6.898616,7.794231 3.609592,2.01744 4.514556,2.177332 6.034195,1.066145 1.248896,-0.913215 2.339489,-1.011956 3.618237,-0.327591 2.24165,1.199695 6.809375,8.833466 8.933355,14.929804 0.8648,2.482181 2.73869,6.770082 4.1642,9.528667 1.4255,2.758586 4.01818,9.606736 5.7615,15.218111 3.77229,12.142194 5.60169,14.083865 16.2543,17.251834 7.94575,2.362978 9.51434,3.270552 12.07577,6.986951 5.1764,7.510484 -2.19888,21.018564 -14.65977,26.849874 -4.33143,2.02698 -12.56326,3.28597 -16.36564,2.50299 z m 12.60639,-6.50781 c 5.72708,-2.77243 13.76069,-10.48444 14.65419,-14.06756 1.43752,-5.76474 -2.12234,-11.532559 -8.79802,-14.254864 -3.71565,-1.515225 -3.78001,-1.501785 -4.7262,0.986885 -0.52759,1.387666 -2.99496,4.558735 -5.48305,7.046819 -2.48808,2.48809 -4.52379,4.76697 -4.52379,5.0642 0,1.36886 -5.38199,7.39342 -7.08878,7.93514 -2.84056,0.90156 -2.33237,2.89486 1.62358,6.36823 4.27346,3.75215 7.99964,3.99147 14.34207,0.92115 z M 75.234687,112.6003 C 76.841861,110.19333 75.935439,109 72.5,109 c -1.925,0 -3.5,0.43886 -3.5,0.97525 0,0.6266 -0.943333,0.61659 -2.638688,-0.028 -3.288904,-1.25044 -3.869433,-0.73376 -2.192538,1.95137 2.483928,3.9774 8.618897,4.3664 11.065913,0.70166 z m -38.996171,-3.83882 c 2.13419,-2.13419 2.148922,-2.25577 0.316098,-2.60874 -1.057331,-0.20362 -2.514663,0.43972 -3.238517,1.42965 -2.813796,3.8481 -0.628338,4.72985 2.922419,1.17909 z m 70.464934,-5.23541 C 110.98948,98.60609 112.16281,90.162807 109,87 106.80061,84.800613 98.403674,84.178409 95.061357,85.967163 c -1.67822,0.898156 -1.841631,0.202492 -2.290269,-9.75 C 92.160961,62.682247 89.122113,54.483105 81.709957,46.373024 75.40267,39.471848 68.42648,35.841162 59.887683,35.120875 L 52.084811,34.462667 56.75,33.068926 c 1.837784,-0.549044 3.256891,-1.783055 3.265313,-2.416751 0.01088,-0.818944 0.227798,-0.835183 0.75,-0.05615 0.404078,0.602815 2.070148,1.423475 3.702378,1.823689 5.812583,1.425213 13.655171,5.817372 17.953081,10.054436 8.262209,8.145238 12.040314,16.873804 13.588307,31.393096 0.945976,8.872709 1.231917,9.719876 2.927094,8.672198 0.754809,-0.466497 0.741457,-1.273284 -0.04541,-2.74355 C 97.83964,77.831848 97.92886,75.792991 99.658543,62.250599 100.48205,55.803041 97.51955,48.856246 90.835845,41.56216 87.709057,38.149822 83.091851,34.265652 80.575388,32.930672 78.058925,31.595691 76,29.823063 76,28.991499 76,27.598098 71.543925,22 70.43478,22 c -0.266355,0 -0.935734,1.18741 -1.487509,2.638688 -0.551775,1.451279 -1.228228,2.413689 -1.503228,2.138689 -0.275,-0.275 -0.04855,-1.68741 0.503228,-3.138689 C 68.815114,21.356089 68.691904,21 67.034266,21 c -1.053928,0 -2.157049,0.389651 -2.451382,0.865891 -0.294332,0.476239 -1.616677,0.659143 -2.938543,0.406453 -4.014488,-0.767418 -8.698187,4.237639 -9.10445,9.729126 -0.232728,3.1458 -0.814997,4.595755 -1.936347,4.821854 C 49.721595,37.001152 49,36.663652 49,36.073324 49,33.97768 42.006584,34.967266 37.97856,37.632886 35.790352,39.080974 34,40.398984 34,40.561798 c 0,0.162814 1.4625,0.302552 3.25,0.310529 1.7875,0.008 8.463093,0.152467 14.834651,0.321089 10.920297,0.289002 11.825515,0.473469 15.784714,3.216642 4.977908,3.448996 13.171922,15.281556 15.766546,22.76767 1.22593,3.537102 1.847914,8.173299 1.854372,13.822272 0.01055,9.228541 -1.908948,14.57737 -7.266978,20.25 L 75.625818,104 h 2.68421 c 1.663082,0 4.15799,-1.33147 6.558292,-3.5 2.130745,-1.925 4.122143,-3.5 4.425329,-3.5 0.303186,0 1.072605,1.579732 1.709821,3.51051 2.1547,6.52881 11.13653,8.25398 15.69998,3.01556 z M 96,98 c -0.825,-0.533156 -1.05,-0.969374 -0.5,-0.969374 0.55,0 1.675,0.436218 2.5,0.969374 0.825,0.533156 1.05,0.969374 0.5,0.969374 -0.55,0 -1.675,-0.436218 -2.5,-0.969374 z M 61.085598,28 C 61.055363,27.175 61.466844,25.825 62,25 c 1.181322,-1.827966 1.181322,-0.249085 0,2.5 -0.566682,1.31874 -0.878155,1.489055 -0.914402,0.5 z m 12.762134,73.99453 C 81.772763,96.089268 84.664673,84.724591 81.581299,71.603027 78.680391,59.257966 70.726296,47.454893 63.184212,44.303609 60.944578,43.36783 56.888976,42.94028 51.617636,43.084238 c -4.4647,0.121929 -10.25046,0.09588 -12.857245,-0.05789 -6.782119,-0.400061 -10.586459,2.800061 -15.7738,13.268551 -8.110047,16.366755 -7.587418,27.872125 1.717978,37.820347 7.075395,7.564174 19.201867,10.947974 37.795431,10.546534 6.809381,-0.14701 8.498234,-0.54397 11.347732,-2.66725 z M 42.654988,84.171259 c -2.489568,-2.750941 -1.999577,-3.276005 1.29347,-1.386056 2.42939,1.394279 3.485672,1.489407 6,0.540354 C 53.116569,82.129729 53.870161,82.729839 51.8,84.8 49.97847,86.62153 44.533677,86.247188 42.654988,84.171259 Z M 61.818046,79.5 C 59.328121,74.03521 65.717253,68.624167 70.040295,72.536466 73.981852,76.103527 71.246266,82 65.649821,82 63.74803,82 62.62255,81.265693 61.818046,79.5 Z M 27.556704,76.777494 C 26.700517,75.555115 26,73.82486 26,72.932481 26,70.75974 29.174484,68 31.673753,68 33.952562,68 37,70.921557 37,73.106234 37,75.724014 33.942885,79 31.5,79 30.167382,79 28.425932,78.01849 27.556704,76.777494 Z M 21.56488,97.422023 c -0.867887,-0.867887 -2.047608,-2.45549 -2.621601,-3.528008 -0.609669,-1.139176 -1.542533,-1.650658 -2.243452,-1.230065 -0.923934,0.554415 -0.929852,0.385869 -0.02573,-0.732991 0.909305,-1.12528 0.781914,-2.885645 -0.564868,-7.805662 -1.672679,-6.11057 -1.807368,-6.284296 -3.533735,-4.557929 -4.6623529,4.662353 2.454546,18.806598 9.74594,19.369246 0.451785,0.03486 0.111339,-0.646703 -0.756549,-1.514591 z m 98.84623,-1.498748 C 121.835,94.231076 123,92.25783 123,91.538285 c 0,-1.660889 -4.73576,-4.81963 -6.02825,-4.020828 C 115.74098,88.278115 115.68435,99 116.91111,99 c 0.5011,0 2.0761,-1.384526 3.5,-3.076725 z m -6.48657,-17.917917 c -1.09706,-3.524838 -2.15578,-6.569928 -2.35271,-6.766866 -0.19694,-0.196938 -0.28141,2.133427 -0.18771,5.178589 0.13006,4.226932 0.63665,5.877621 2.14154,6.978027 1.08416,0.792754 2.06622,1.346347 2.18236,1.230209 0.11614,-0.116139 -0.68643,-3.09512 -1.78348,-6.619959 z m -5.1365,-5.794015 c 0.27199,-8.77131 0.11272,-9.617575 -2.85957,-15.194171 -1.73118,-3.248032 -4.00824,-6.684373 -5.06012,-7.636313 -1.870991,-1.693225 -1.880334,-1.653789 -0.43035,1.816502 1.77796,4.255269 1.96928,7.714622 1.01585,18.368034 -0.86609,9.677561 0.21927,12.723302 4.36341,12.244537 2.67161,-0.308647 2.68393,-0.348456 2.97078,-9.598589 z M 99,42.654988 c 0,-0.189757 -1.0125,-1.202257 -2.25,-2.25 L 94.5,38.5 96.404988,40.75 C 98.195206,42.864445 99,43.455241 99,42.654988 Z"
       id="path22"
       sodipodi:nodetypes="ssssssscscsscsssssssssssssssssssssssssssssssssscsscsccsssssssssscsssssssssssssssssssssssscssssscssssssssssssssssssssssssssssssssssssssssssssssssssssssssssssssssssscss" />
    <path
       style="fill:#ff7f2a;stroke-width:0.127072"
       d="m 114.3632,122.58109 c -1.94304,-0.52613 -3.84797,-1.77638 -6.00214,-3.93934 -1.45176,-1.45768 -2.15961,-2.55737 -2.15961,-3.35506 0,-0.60276 0.56484,-1.24326 1.36302,-1.54561 0.98295,-0.37234 1.54078,-0.7863 3.06532,-2.27473 2.1732,-2.12172 4.04347,-4.5109 4.36499,-5.57605 0.18185,-0.60247 1.17086,-1.76624 3.92716,-4.62109 3.60099,-3.729749 5.51501,-6.20499 6.33199,-8.188629 0.53657,-1.302798 0.83181,-1.570427 1.62424,-1.472333 0.77326,0.09572 2.92074,0.93615 4.49612,1.759578 3.73877,1.954208 6.43283,5.232659 7.1742,8.730384 0.21372,1.00833 0.23655,2.98741 0.0463,4.01637 -0.3553,1.92197 -1.88121,4.13526 -5.00171,7.25486 -4.67438,4.67302 -9.39904,7.71525 -14.04914,9.04629 -1.53769,0.44015 -3.88881,0.5152 -5.18078,0.16536 z"
       id="path24" />
    <path
       style="fill:#ff7f2a;fill-opacity:1;stroke-width:0.127072"
       d="m 98.132389,106.37285 c -2.579547,-0.48743 -4.753821,-1.87887 -6.090045,-3.89737 -0.26251,-0.39654 -0.788337,-1.53816 -1.168506,-2.536911 -0.661584,-1.738069 -1.180874,-2.804841 -1.444746,-2.967922 -0.06762,-0.04179 -0.25278,-0.0079 -0.411475,0.07524 -0.443173,0.232257 -2.175249,1.609875 -3.65594,2.907772 -2.371473,2.078711 -3.871458,3.082831 -5.4233,3.630471 -0.740544,0.26134 -1.104034,0.30627 -2.496319,0.30856 l -1.629568,0.003 1.720392,-1.81078 c 2.730894,-2.874356 4.109052,-4.735146 5.371815,-7.253025 1.876219,-3.741074 2.581457,-7.526485 2.585984,-13.880439 0.006,-8.489627 -1.004392,-13.129949 -4.162663,-19.116507 -2.674836,-5.070203 -6.079054,-9.999706 -9.707,-14.056297 -2.509434,-2.805926 -5.393079,-4.889011 -7.792691,-5.629276 -2.409098,-0.743192 -5.542765,-0.917421 -23.068836,-1.28261 -3.24986,-0.06772 -6.078602,-0.170233 -6.286093,-0.227813 l -0.377256,-0.104691 0.758471,-0.599718 c 1.203749,-0.951795 3.671318,-2.584316 4.654908,-3.079645 2.185387,-1.100543 5.560563,-1.916807 7.469,-1.80633 1.260478,0.07297 1.770923,0.345872 1.969282,1.052853 0.219715,0.783097 1.062156,1.054016 2.025671,0.651434 0.818516,-0.341997 1.333389,-1.75072 1.594512,-4.362666 0.186418,-1.864712 0.5291,-3.154666 1.207915,-4.546936 1.081693,-2.218589 2.757533,-4.002621 4.631451,-4.930458 l 1.077749,-0.533628 h 2.237653 c 1.945412,0 2.278466,-0.02959 2.550171,-0.226594 0.171886,-0.124626 0.500453,-0.363361 0.730148,-0.530521 0.974708,-0.70934 3.177071,-0.753986 3.394536,-0.06881 0.04066,0.128116 -0.165326,0.966775 -0.457755,1.863687 -0.546282,1.675513 -0.781703,3.232744 -0.513758,3.398343 0.400741,0.247672 0.692663,-0.204504 2.084565,-3.228919 0.241236,-0.524171 0.552672,-1.091656 0.692081,-1.261077 l 0.253473,-0.308039 0.448504,0.277191 c 0.965543,0.596739 3.274118,3.32035 4.311462,5.086578 0.272461,0.463907 0.585974,1.151969 0.696697,1.529028 0.344388,1.172796 1.895045,2.557965 4.500798,4.020469 3.793366,2.129064 9.214047,7.036351 12.873872,11.654587 4.180577,5.275359 6.433238,10.687476 6.433238,15.456137 0,0.637914 -0.225462,2.97505 -0.501028,5.193634 -0.835981,6.730518 -1.056239,9.241179 -0.999194,11.389501 0.04687,1.76528 0.07994,1.987293 0.408998,2.746492 0.786029,1.8135 0.878062,2.172989 0.668701,2.612022 -0.180433,0.37837 -0.858634,0.818915 -1.260687,0.818915 -0.744185,0 -1.160286,-1.737285 -1.8109,-7.560769 C 95.104336,65.194885 93.734172,59.67553 90.958627,54.019702 87.832342,47.649159 83.156747,42.247193 77.493737,38.462993 73.346371,35.691592 69.485454,33.847225 64.96666,32.478789 62.507936,31.734207 61.572261,31.28591 60.783735,30.474681 c -0.601158,-0.618469 -0.836409,-0.617768 -0.836409,0.0025 0,0.48351 -0.743534,1.246368 -1.785399,1.831802 -0.549727,0.308897 -3.092454,1.367982 -4.491073,1.870601 -0.132309,0.04755 -1.501788,0.229183 -1.464613,0.266358 0.03718,0.03718 2.980991,0.121533 4.963141,0.324737 3.823456,0.391969 5.476913,0.627842 7.225456,1.03074 1.97485,0.455044 4.599405,1.413677 6.60332,2.411896 3.544433,1.765606 6.050505,3.607553 9.223186,6.778982 6.809689,6.807006 10.330915,13.814222 11.752057,23.386522 0.355387,2.393752 0.594616,5.193876 0.81966,9.593918 0.419782,8.207547 0.577151,8.769368 2.258455,8.062869 1.201493,-0.504876 2.374761,-0.794491 3.879754,-0.957696 3.28958,-0.356733 7.82263,0.404595 9.49699,1.595025 3.29738,2.344351 2.9712,9.8288 -0.66689,15.302255 -1.67354,2.51781 -3.71175,3.93294 -6.33894,4.40113 -1.22456,0.21822 -2.121878,0.21728 -3.290041,-0.003 z m 0.655423,-7.503284 c 0.118377,-0.308485 -0.42424,-0.783414 -1.523924,-1.333824 -1.048046,-0.524563 -2.117685,-0.693982 -2.117685,-0.335417 0,0.402997 1.385063,1.300445 2.604971,1.687883 0.690231,0.219215 0.947137,0.214595 1.036638,-0.01864 z M 61.650845,28.382975 c 0.584174,-0.905192 1.447365,-3.749256 1.246733,-4.107767 -0.309292,-0.552673 -1.574388,1.497905 -1.783876,2.891458 -0.193864,1.289626 0.0839,1.918609 0.537143,1.216309 z"
       id="path26"
       sodipodi:nodetypes="cssscssccsscssssscsssssssscsssssssscssssssssssscsssssssssssssssssssccssssssssss" />
    <path
       style="fill:#ff7f2a;stroke-width:0.127072"
       d="m 55.690422,104.58169 c -10.145504,-0.44756 -17.117308,-1.90415 -23.029104,-4.811376 -3.111563,-1.530163 -5.720865,-3.417141 -7.839541,-5.669348 -4.332197,-4.605238 -6.741,-9.588217 -7.331775,-15.166904 -0.197668,-1.866579 -0.07309,-5.296667 0.265674,-7.314922 0.805666,-4.799939 2.677244,-10.075042 5.658088,-15.947506 4.092134,-8.06178 7.11093,-11.29148 11.525021,-12.330199 0.841793,-0.19809 1.883129,-0.216504 11.15772,-0.197301 11.189274,0.02317 12.946871,0.105074 15.439218,0.719498 4.552536,1.122311 9.713363,5.904048 13.911597,12.88972 6.002037,9.987112 8.528969,21.998758 6.615965,31.448652 -0.675716,3.337915 -2.334433,7.147226 -4.177949,9.59483 -1.288498,1.710715 -3.213903,3.556506 -4.80499,4.606296 -1.986003,1.31037 -3.307891,1.73472 -6.21116,1.99389 -1.545944,0.13801 -9.323847,0.26649 -11.178764,0.18467 z M 50.592409,85.602366 c 1.216071,-0.47221 2.428078,-1.766996 2.343724,-2.503801 -0.04094,-0.357597 -0.04827,-0.360457 -0.867256,-0.338298 -0.579028,0.01567 -1.224866,0.161568 -2.16022,0.488012 -2.633035,0.918948 -3.159028,0.868896 -6.00633,-0.571549 -2.768065,-1.40036 -3.411438,-1.384673 -2.494731,0.06082 0.569956,0.898727 1.85784,2.127021 2.584003,2.464441 1.302493,0.605217 2.286534,0.779619 4.138054,0.733385 1.415,-0.03533 1.846357,-0.09366 2.462756,-0.333013 z M 67.21593,81.896563 c 3.726986,-0.788488 5.738504,-4.501268 4.167557,-7.692315 -1.042909,-2.118447 -3.320348,-3.368372 -5.429338,-2.979775 -2.118066,0.390269 -3.85081,1.973113 -4.500117,4.110812 -0.333525,1.09806 -0.282155,2.709342 0.119663,3.753288 0.35237,0.915477 0.989139,1.878833 1.466633,2.218838 0.947599,0.67475 2.641384,0.913732 4.175602,0.589152 z M 32.776563,78.779882 c 1.603734,-0.502167 3.403753,-2.443344 4.047742,-4.365163 0.541507,-1.615997 0.09187,-2.973552 -1.518759,-4.585522 -2.044924,-2.046619 -3.96376,-2.387438 -6.218588,-1.104528 -1.477196,0.840468 -2.885736,2.538881 -3.111563,3.751917 -0.128283,0.689072 0.13474,1.68123 0.807475,3.045912 0.751094,1.523636 1.537747,2.380846 2.717326,2.961051 1.273713,0.626505 2.009415,0.693048 3.276367,0.296333 z"
       id="path28" />
    <path
       style="fill:#ffffff;stroke-width:0.127072"
       d="m 103.89361,81.643432 c -1.09665,-0.312601 -1.95921,-1.481046 -2.35701,-3.192859 -0.32163,-1.384088 -0.2918,-5.999141 0.0651,-10.077697 0.69274,-7.915239 0.60656,-11.75896 -0.33747,-15.052069 -0.13023,-0.454282 -0.55346,-1.626519 -0.94051,-2.604971 -0.92796,-2.345875 -0.945494,-2.407062 -0.643479,-2.245428 0.502859,0.26912 1.919909,1.795526 2.736339,2.9475 1.97229,2.782858 4.91365,8.165292 5.59826,10.244311 0.64855,1.969522 0.75911,2.967329 0.75124,6.780127 -0.008,3.882184 -0.21797,9.355253 -0.41171,10.73222 -0.16861,1.198344 -0.56422,1.976172 -1.15103,2.263145 -0.55722,0.2725 -2.62469,0.401003 -3.30978,0.205721 z"
       id="path30" />
    <path
       style="fill:#ff7f2a;stroke-width:0.127072"
       d="m 114.72814,84.106619 c -2.31889,-1.366669 -2.90823,-2.502068 -3.18552,-6.137072 -0.14988,-1.964799 -0.16021,-5.913017 -0.0164,-6.280485 0.0753,-0.192352 0.18997,0.0066 0.51296,0.889502 1.35363,3.700368 3.64298,11.349434 3.54031,11.828728 -0.0282,0.131461 -0.25259,0.05219 -0.85132,-0.300673 z"
       id="path32" />
    <path
       style="fill:#ffffff;stroke-width:0.127072"
       d="m 116.67472,98.624246 c -0.41201,-0.628811 -0.59068,-2.585389 -0.5166,-5.657051 0.07,-2.900205 0.24899,-4.300024 0.64892,-5.073394 0.17366,-0.335834 0.27227,-0.390692 0.70229,-0.390692 1.47512,0 4.45639,1.980291 5.22958,3.473709 0.23768,0.459096 0.24087,0.521344 0.0547,1.067594 -0.39998,1.173862 -2.01317,3.455061 -3.57864,5.060514 -0.79079,0.810982 -2.03,1.834642 -2.22096,1.834642 -0.062,0 -0.2057,-0.141895 -0.31934,-0.315322 z"
       id="path34" />
    <path
       style="fill:#ff7f2a;stroke-width:0.127072"
       d="m 98.230594,42.574895 c -0.428203,-0.337492 -2.703176,-2.89597 -2.703176,-3.040044 0,-0.122239 2.556899,2.125297 3.027179,2.660917 0.649178,0.739372 0.441458,0.982432 -0.324003,0.379127 z"
       id="path36" />
    <path
       style="fill:#ff7f2a;stroke-width:0.127072"
       d="m 68.620036,114.88496 c -1.953836,-0.42443 -3.821762,-1.87382 -4.770435,-3.70155 -1.01347,-1.95256 -0.554388,-2.20481 2.25419,-1.23859 1.60551,0.55234 2.481565,0.67005 2.778316,0.37329 0.117912,-0.11791 0.214385,-0.28955 0.214385,-0.38143 0,-0.77597 4.429053,-1.14161 5.875356,-0.48505 0.816216,0.37053 1.100275,0.93224 0.866871,1.71419 -0.829544,2.77913 -4.007863,4.41664 -7.218683,3.71914 z"
       id="path38" />
    <path
       style="fill:#ff7f2a;stroke-width:0.127072"
       d="m 32.244791,110.69263 c -0.215003,-0.25906 -0.09431,-0.91588 0.320159,-1.74233 1.022997,-2.03985 2.56424,-3.01489 4.217489,-2.66812 0.398817,0.0837 0.806579,0.23356 0.90614,0.33312 0.252136,0.25213 -0.03421,0.62725 -1.673783,2.19264 -1.827829,1.74513 -3.282354,2.47227 -3.770005,1.88469 z"
       id="path40" />
    <path
       style="fill:#ffffff;stroke-width:0.127072"
       d="M 20.932704,98.573987 C 17.9706,97.625924 14.869859,94.498969 12.929073,90.502696 10.904508,86.333913 10.614325,82.455175 12.159039,80.21001 c 0.509132,-0.739998 1.378841,-1.474852 1.745507,-1.474852 0.400457,0 0.780578,0.7821 1.424691,2.931304 1.218267,4.064976 1.802927,6.700468 1.817703,8.193725 0.0109,1.10192 -0.124034,1.499161 -0.802637,2.362863 -0.200093,0.254671 -0.363805,0.526287 -0.363805,0.603591 0,0.203653 0.341547,0.172405 0.702805,-0.0643 0.214737,-0.140701 0.447863,-0.179488 0.744418,-0.123854 0.520549,0.09766 1.054583,0.679883 2.108077,2.298321 0.40944,0.629005 1.235144,1.710157 1.834898,2.402561 0.599754,0.692403 1.090462,1.307112 1.090462,1.366022 0,0.175798 -0.777478,0.108959 -1.528454,-0.131404 z"
       id="path42" />
    <path
       style="fill:#ffffff;stroke-width:0.127072;fill-opacity:1"
       d="m 97.763359,106.29439 c -1.795395,-0.40939 -3.347488,-1.24657 -4.619482,-2.4917 -1.051897,-1.02968 -1.322526,-1.48868 -2.36787,-4.016019 -0.957507,-2.314971 -1.24813,-2.841143 -1.569262,-2.841143 -0.306803,0 -1.447629,0.849731 -3.752232,2.794804 -2.47148,2.085918 -3.307741,2.686998 -4.713525,3.387938 -1.0533,0.52519 -1.27249,0.58584 -2.477899,0.68564 -0.72731,0.0602 -1.568266,0.11198 -1.86879,0.11503 l -0.546407,0.006 1.674825,-1.80924 c 2.875236,-3.105986 4.008854,-4.634424 5.241951,-7.067634 1.197761,-2.363484 1.826654,-4.349815 2.271545,-7.174568 0.260038,-1.651069 0.284143,-2.24955 0.28753,-7.139159 0.004,-5.74999 -0.09479,-7.069047 -0.762609,-10.184073 C 83.590824,66.03382 81.306962,61.19052 77.36518,55.299619 72.512065,48.046757 68.060928,43.668334 64.122475,42.273248 61.806191,41.45277 58.293272,41.21946 43.584369,40.909216 c -6.918038,-0.145918 -9.276238,-0.24568 -9.276238,-0.392427 0,-0.160915 1.302429,-1.124534 3.227548,-2.387945 2.736931,-1.796184 5.49914,-2.754179 8.3644,-2.90096 1.929728,-0.09886 2.488213,0.07843 2.881259,0.914597 0.144782,0.30801 0.386679,0.62608 0.537546,0.706822 0.401444,0.214847 1.575072,0.08546 1.901343,-0.209615 0.630305,-0.570035 1.005588,-1.774905 1.322701,-4.246612 0.276171,-2.152589 0.479787,-2.89495 1.202446,-4.383975 1.10376,-2.274283 2.60416,-3.910567 4.515783,-4.924755 l 1.016574,-0.539331 2.350828,-0.06354 2.350827,-0.06354 0.676441,-0.473118 c 0.785446,-0.549357 1.351856,-0.732368 2.269705,-0.733355 0.761502,-8.19e-4 1.310758,0.173413 1.310758,0.415792 0,0.09276 -0.205877,0.880427 -0.457503,1.750382 -0.26214,0.906301 -0.486161,2.002267 -0.524614,2.56654 -0.06293,0.923384 -0.05121,0.984807 0.1878,0.984807 0.368611,0 0.488924,-0.180176 1.683819,-2.52161 0.727506,-1.425572 1.15605,-2.130566 1.312729,-2.159568 0.303785,-0.05623 2.270004,1.933586 3.432795,3.473996 0.485294,0.642893 1.192299,1.819129 1.614695,2.68635 1.042371,2.140092 1.650577,2.729366 4.748765,4.600947 1.888231,1.140658 3.156974,2.050553 4.886747,3.504593 8.560732,7.196113 13.883293,15.468485 14.354768,22.310302 0.10594,1.537392 0.006,2.868877 -0.612753,8.127157 -0.715122,6.081627 -0.798219,7.169515 -0.738127,9.663357 l 0.05357,2.223288 0.46835,1.060718 c 0.257591,0.583394 0.502303,1.273055 0.543802,1.532582 0.06827,0.426963 0.03075,0.511115 -0.394337,0.884347 -0.597233,0.524376 -1.034319,0.500625 -1.368865,-0.07438 -0.366789,-0.63043 -0.667364,-2.356311 -1.30088,-7.46956 -0.83511,-6.740351 -1.412477,-9.948782 -2.435328,-13.533142 -2.592045,-9.083258 -8.056878,-16.953 -15.416766,-22.201224 -3.875924,-2.763861 -8.139058,-4.873387 -13.145539,-6.504803 -2.69374,-0.877784 -3.326656,-1.170527 -4.268102,-1.974131 -0.373392,-0.318722 -0.747427,-0.579494 -0.831187,-0.579494 -0.08376,0 -0.192327,0.214433 -0.241259,0.476519 -0.18699,1.001553 -1.618428,1.924687 -4.99042,3.218323 -0.786257,0.301641 -2.716792,0.739546 -2.716792,0.790157 0,0.14012 1.737475,0.05831 4.972315,0.405949 6.532029,0.701982 8.795883,1.217146 12.452712,2.833741 4.431614,1.95911 8.087195,4.638592 11.743848,8.608051 5.54542,6.019797 8.513801,11.751001 10.100473,19.501495 0.599497,2.928383 0.915854,5.947597 1.278215,12.198889 0.275937,4.760307 0.336315,5.517879 0.531702,6.671267 0.164576,0.971517 0.435308,1.544528 0.771253,1.632379 0.145493,0.03805 0.848191,-0.126098 1.561549,-0.364767 1.769879,-0.592153 3.221637,-0.822861 5.177965,-0.822861 2.62892,0 5.5208,0.542161 7.06455,1.324441 1.14319,0.579296 2.05363,1.851433 2.51445,3.513359 0.31879,1.149722 0.31679,4.096042 -0.004,5.582084 -0.71815,3.329027 -2.26807,6.384426 -4.21972,8.318416 -1.72268,1.7071 -3.53573,2.47721 -6.02296,2.55832 -0.959848,0.0313 -1.728841,-0.0133 -2.240871,-0.13009 z m 0.970153,-7.418498 c 0,-0.331651 -0.233333,-0.585113 -0.953039,-1.035254 -0.711576,-0.445056 -2.253734,-0.959558 -2.543207,-0.848477 -0.318371,0.122171 -0.210574,0.542012 0.224148,0.87299 1.26719,0.96478 3.272098,1.58409 3.272098,1.010741 z M 61.884055,27.913797 c 0.452185,-0.972671 1.049978,-3.026987 0.993282,-3.413419 -0.163861,-1.11687 -1.617339,0.968602 -1.911248,2.74229 -0.16309,0.984216 -0.06776,1.465327 0.290351,1.465327 0.192872,0 0.352029,-0.2014 0.627615,-0.794198 z"
       id="path44"
       sodipodi:nodetypes="cssssssccsssscsssssssssssscccssssssssssssscscsssssssssssssssssssssssscssccssssssssss" />
    <path
       style="fill:#ff7f2a;fill-opacity:1;stroke-width:0.0635359"
       d="M 97.928906,82.547803 C 97.302518,82.237328 97.086644,81.223807 96.244715,74.64061 95.765857,70.896338 95.422874,68.541403 95.092636,66.730393 94.174158,61.693498 92.901551,57.722337 90.964632,53.848995 86.438431,44.797746 79.391829,38.260073 69.718976,34.137769 68.345552,33.552453 67.122327,33.098515 64.89025,32.34583 62.901894,31.675331 61.931778,31.237241 61.268705,30.710394 60.658721,30.22573 60.204913,29.911352 60.115278,29.911352 c -0.04126,0 -0.122774,0.135808 -0.181149,0.301795 -0.195077,0.554698 -0.282424,0.714185 -0.550315,1.004812 -0.785235,0.851879 -3.492756,2.145855 -5.834719,2.788523 -0.576588,0.158225 -1.081041,0.287943 -1.121008,0.288263 -0.05103,4.09e-4 -0.05693,-0.07037 -0.01984,-0.237677 0.02906,-0.131043 0.154089,-0.940496 0.277851,-1.798785 0.328674,-2.279362 0.566763,-3.080017 1.374358,-4.621756 1.15703,-2.208826 2.530447,-3.610305 4.64068,-4.735496 l 0.672764,-0.358723 2.357302,-0.06934 2.357302,-0.06934 0.655015,-0.432037 c 0.964975,-0.636482 1.235716,-0.724472 2.243412,-0.729098 0.68351,-0.0031 0.867059,0.01663 1.064226,0.114635 0.131042,0.06513 0.238211,0.165203 0.238151,0.222375 -5.9e-5,0.05717 -0.157517,0.690067 -0.349906,1.406434 -0.387948,1.444533 -0.574855,2.374168 -0.634826,3.157486 -0.04605,0.60148 0.01501,0.781738 0.264795,0.781738 0.33188,0 0.506657,-0.267389 1.829445,-2.798846 0.375269,-0.718165 0.780108,-1.44052 0.899642,-1.605235 l 0.217334,-0.299482 0.203297,0.105129 c 0.256732,0.132762 1.477787,1.322068 2.198866,2.141696 1.103971,1.254847 1.787076,2.276003 2.686906,4.016584 1.039601,2.010946 1.651669,2.627528 4.108862,4.13916 1.549585,0.953285 2.805057,1.786568 3.665464,2.432846 3.036604,2.280887 6.627076,5.735812 9.155088,8.809464 2.727093,3.315703 4.845359,6.912206 5.959929,10.119081 0.752298,2.164531 1.054864,3.852424 1.054864,5.884652 0,1.370942 -0.103384,2.519243 -0.694863,7.717914 -0.65268,5.736582 -0.657665,5.803144 -0.648408,8.656923 l 0.008,2.462176 0.408539,0.968762 c 0.50079,1.187514 0.701137,1.831225 0.642572,2.064568 -0.0475,0.189252 -0.44774,0.600365 -0.71862,0.738141 -0.299989,0.152581 -0.421513,0.166184 -0.617372,0.06911 z M 61.654663,28.497678 c 0.312653,-0.369171 0.813494,-1.641461 1.13866,-2.892545 0.20878,-0.803282 0.253814,-1.171466 0.163851,-1.339565 -0.321349,-0.600446 -1.412437,0.905396 -1.819913,2.511712 -0.20284,0.799617 -0.215206,1.612009 -0.0274,1.799818 0.181344,0.181344 0.344043,0.157626 0.544798,-0.07942 z"
       id="path46" />
    <path
       style="opacity:0.99;fill:none;stroke:#000000;stroke-width:0.4;stroke-linecap:butt;stroke-linejoin:miter;stroke-miterlimit:4;stroke-dasharray:none;stroke-opacity:1"
       d="m 89.378586,97.311752 c 0,0 -0.148758,-8.051814 4.649323,-10.911068"
       id="path54" />
    <path
       style="opacity:0.99;fill:#ff7f2a;fill-opacity:1;stroke-width:0.0625739;stroke-miterlimit:4;stroke-dasharray:none"
       d="M 21.157582,98.628791 C 17.262701,97.582055 13.084814,92.45572 11.58686,86.885362 c -0.485678,-1.806067 -0.477516,-4.335259 0.01807,-5.600235 0.383059,-0.977744 1.788166,-2.586021 2.259336,-2.586021 0.499821,0 0.941214,1.073124 1.974623,4.800741 0.949798,3.426021 1.275157,5.025529 1.289907,6.341348 0.01286,1.146879 -0.01583,1.251134 -0.562653,2.045101 -0.715799,1.039307 -0.746596,1.300955 -0.114664,0.97417 1.048064,-0.541975 1.520432,-0.251963 2.828522,1.736576 0.541586,0.823313 1.310903,1.859621 1.709592,2.302909 0.909773,1.011539 1.414174,1.669213 1.414174,1.843897 0,0.179864 -0.226663,0.158936 -1.246187,-0.115057 z"
       id="path879" />
    <path
       style="opacity:0.99;fill:#ff7f2a;fill-opacity:1;stroke-width:0.0625739;stroke-miterlimit:4;stroke-dasharray:none"
       d="m 97.852735,106.23478 c -2.699433,-0.57745 -5.179612,-2.47826 -6.22969,-4.77442 -2.011693,-4.398889 -2.003102,-4.373018 -1.88625,-5.68039 0.45927,-5.138454 2.688781,-8.821409 5.931876,-9.798936 2.090451,-0.6301 3.218589,-0.75879 5.874469,-0.670119 2.58663,0.08636 4.73818,0.506223 6.06639,1.183821 3.34292,1.705433 3.76019,7.954854 0.91046,13.635924 -1.52818,3.0465 -3.61262,5.05481 -6.02164,5.8017 -1.15194,0.35715 -3.634335,0.51875 -4.645615,0.30242 z m 0.862466,-7.466566 c -0.06451,-0.55238 -0.962346,-1.168238 -2.365742,-1.622751 -1.117697,-0.361984 -1.442494,-0.296431 -1.333574,0.269148 0.112185,0.582527 2.320493,1.734497 3.386446,1.766549 0.303937,0.0091 0.354388,-0.05745 0.31287,-0.412946 z"
       id="path881" />
    <ellipse
       style="opacity:0.99;fill:#ffffff;fill-opacity:1;stroke-width:0.4;stroke-miterlimit:4;stroke-dasharray:none"
       id="path883"
       cx="29.75572"
       cy="70.987862"
       rx="1.6039329"
       ry="1.5762788" />
    <ellipse
       style="opacity:0.99;fill:#ffffff;fill-opacity:1;stroke-width:0.4;stroke-miterlimit:4;stroke-dasharray:none"
       id="path883-7"
       cx="65.097549"
       cy="74.223373"
       rx="1.6039329"
       ry="1.5762788" />
  </g>
</svg>
